<?xml version="1.0" encoding="UTF-8" standalone="no"?>
<!-- Created with Inkscape (http://www.inkscape.org/) -->

<svg
   xmlns:dc="http://purl.org/dc/elements/1.1/"
   xmlns:cc="http://creativecommons.org/ns#"
   xmlns:rdf="http://www.w3.org/1999/02/22-rdf-syntax-ns#"
   xmlns:svg="http://www.w3.org/2000/svg"
   xmlns="http://www.w3.org/2000/svg"
   xmlns:sodipodi="http://sodipodi.sourceforge.net/DTD/sodipodi-0.dtd"
   xmlns:inkscape="http://www.inkscape.org/namespaces/inkscape"
   width="210mm"
   height="297mm"
   viewBox="0 0 744.09448819 1052.3622047"
   id="svg8698"
   version="1.1"
   inkscape:version="0.91 r13725"
   sodipodi:docname="event-listener-user.svg">
  <title
     id="title9863">Event Listner</title>
  <defs
     id="defs8700" />
  <sodipodi:namedview
     id="base"
     pagecolor="#ffffff"
     bordercolor="#666666"
     borderopacity="1.0"
     inkscape:pageopacity="0.0"
     inkscape:pageshadow="2"
     inkscape:zoom="1.979899"
     inkscape:cx="162.44192"
     inkscape:cy="985.1964"
     inkscape:document-units="px"
     inkscape:current-layer="layer1"
     showgrid="false"
     showguides="true"
     inkscape:guide-bbox="true"
     inkscape:window-width="1920"
     inkscape:window-height="1030"
     inkscape:window-x="-8"
     inkscape:window-y="-8"
     inkscape:window-maximized="1">
    <sodipodi:guide
       position="50,1059.6429"
       orientation="1,0"
       id="guide8706" />
    <sodipodi:guide
       position="4.0406102,999.92477"
       orientation="0,1"
       id="guide8708" />
    <sodipodi:guide
       position="696.50019,833.88094"
       orientation="1,0"
       id="guide8710" />
    <sodipodi:guide
       position="365.67522,771.25148"
       orientation="0,1"
       id="guide8712" />
    <sodipodi:guide
       position="100.0051,1003.7128"
       orientation="1,0"
       id="guide9260" />
    <sodipodi:guide
       position="83.337586,950.04849"
       orientation="0,1"
       id="guide9262" />
  </sodipodi:namedview>
  <metadata
     id="metadata8703">
    <rdf:RDF>
      <cc:Work
         rdf:about="">
        <dc:format>image/svg+xml</dc:format>
        <dc:type
           rdf:resource="http://purl.org/dc/dcmitype/StillImage" />
        <dc:title>Event Listner</dc:title>
      </cc:Work>
    </rdf:RDF>
  </metadata>
  <g
     inkscape:label="Ebene 1"
     inkscape:groupmode="layer"
     id="layer1">
    <path
       id="path9865-2"
       style="fill:#ffffff;fill-opacity:1;stroke:#000000;stroke-width:2;stroke-linejoin:round;stroke-miterlimit:4;stroke-dasharray:none;stroke-dashoffset:0;stroke-opacity:1;stroke-linecap:round"
       d="M 95.341751,77.437965 A 20.278152,20.225914 0 0 1 75.063599,97.663879 20.278152,20.225914 0 0 1 54.785446,77.437965 20.278152,20.225914 0 0 1 75.063599,57.212051 20.278152,20.225914 0 0 1 95.341751,77.437965 Z m 4.663349,-0.06237 A 25.00255,24.938139 0 0 1 75.002548,102.31373 25.00255,24.938139 0 0 1 49.999998,77.375595 25.00255,24.938139 0 0 1 75.002548,52.437456 25.00255,24.938139 0 0 1 100.0051,77.375595 Z" />
    <path
       id="rect4160"
       style="fill:#ffffff;fill-opacity:1;stroke:#000000;stroke-width:1.31336212;stroke-linecap:round;stroke-linejoin:round;stroke-miterlimit:4;stroke-dasharray:none;stroke-dashoffset:0;stroke-opacity:1"
       d="m 69.839906,77.286395 9.84016,0 0,12.545451 -9.84016,0 z m 5.31506,-1.120136 c -6.76196,7.4e-5 -12.24358,4.494049 -12.24367,10.037672 0.002,0.0566 0.004,0.113187 0.007,0.169756 l -0.0118,0 0.009,1.61475 a 22.548503,17.430399 0 0 0 6.96272,2.299289 l 10.5013,0 a 22.548503,17.430399 0 0 0 7.00649,-2.30481 l -0.007,-1.444993 c 0.009,-0.111231 0.0158,-0.222577 0.0202,-0.333992 -1e-4,-5.54362 -5.48173,-10.037595 -12.24368,-10.037672 z m 7.94577,-6.821979 a 8.2396182,6.7550471 0 0 1 -8.23962,6.755046 8.2396182,6.7550471 0 0 1 -8.23962,-6.755046 8.2396182,6.7550471 0 0 1 8.23962,-6.755048 8.2396182,6.7550471 0 0 1 8.23962,6.755048 z"
       inkscape:connector-curvature="0" />
  </g>
</svg>
