<?xml version="1.0" encoding="UTF-8" standalone="no"?>
<!-- Created with Inkscape (http://www.inkscape.org/) -->

<svg
   xmlns:dc="http://purl.org/dc/elements/1.1/"
   xmlns:cc="http://creativecommons.org/ns#"
   xmlns:rdf="http://www.w3.org/1999/02/22-rdf-syntax-ns#"
   xmlns:svg="http://www.w3.org/2000/svg"
   xmlns="http://www.w3.org/2000/svg"
   xmlns:sodipodi="http://sodipodi.sourceforge.net/DTD/sodipodi-0.dtd"
   xmlns:inkscape="http://www.inkscape.org/namespaces/inkscape"
   width="210mm"
   height="297mm"
   viewBox="0 0 744.09448819 1052.3622047"
   id="svg9273"
   version="1.1"
   inkscape:version="0.91 r13725"
   sodipodi:docname="task-manual.svg">
  <title
     id="title9861">Task</title>
  <defs
     id="defs9275" />
  <sodipodi:namedview
     id="base"
     pagecolor="#ffffff"
     bordercolor="#666666"
     borderopacity="1.0"
     inkscape:pageopacity="0.0"
     inkscape:pageshadow="2"
     inkscape:zoom="5.6568542"
     inkscape:cx="49.290186"
     inkscape:cy="963.30631"
     inkscape:document-units="px"
     inkscape:current-layer="layer1"
     showgrid="false"
     showguides="true"
     inkscape:guide-bbox="true"
     inkscape:window-width="1920"
     inkscape:window-height="1030"
     inkscape:window-x="-8"
     inkscape:window-y="-8"
     inkscape:window-maximized="1">
    <sodipodi:guide
       position="55.053314,1048.0333"
       orientation="1,0"
       id="guide9281" />
    <sodipodi:guide
       position="131.31983,998.03074"
       orientation="0,1"
       id="guide9283" />
    <sodipodi:guide
       position="697.00526,1030.8607"
       orientation="1,0"
       id="guide9285" />
    <sodipodi:guide
       position="163.39217,969.74646"
       orientation="1,0"
       id="guide9287" />
    <sodipodi:guide
       position="75.256365,925.80482"
       orientation="0,1"
       id="guide9289" />
    <sodipodi:guide
       position="95.711954,979.84798"
       orientation="0,1"
       id="guide4736" />
    <sodipodi:guide
       position="60.015689,993.57344"
       orientation="1,0"
       id="guide4744" />
    <sodipodi:guide
       position="73.715883,995.07604"
       orientation="1,0"
       id="guide4746" />
    <sodipodi:guide
       position="81.715028,989.90532"
       orientation="0,1"
       id="guide4766" />
    <sodipodi:guide
       position="98.382814,977.36722"
       orientation="0,1"
       id="guide4797" />
  </sodipodi:namedview>
  <metadata
     id="metadata9278">
    <rdf:RDF>
      <cc:Work
         rdf:about="">
        <dc:format>image/svg+xml</dc:format>
        <dc:type
           rdf:resource="http://purl.org/dc/dcmitype/StillImage" />
        <dc:title>Task</dc:title>
      </cc:Work>
    </rdf:RDF>
  </metadata>
  <g
     inkscape:label="Ebene 1"
     inkscape:groupmode="layer"
     id="layer1">
    <rect
       style="fill:#ffffff;fill-opacity:1;stroke:#000000;stroke-width:2;stroke-linejoin:round;stroke-miterlimit:4;stroke-dasharray:none;stroke-dashoffset:0;stroke-opacity:1"
       id="rect9894"
       width="108.33885"
       height="72.225922"
       x="55.318481"
       y="54.243095"
       rx="8.5860806"
       ry="7.7049794" />
    <path
       style="fill:none;fill-rule:evenodd;stroke:#000000;stroke-width:0.59535342;stroke-linecap:round;stroke-linejoin:round;stroke-miterlimit:4;stroke-dasharray:none;stroke-opacity:1"
       d="m 63.321259,68.410458 c 0.69636,-0.516341 0.812658,-1.458424 0.83631,-2.259087 0.191534,-0.599707 0.859104,-0.833363 1.332036,-1.167197 0.898907,-0.530586 1.927975,-0.840564 2.791008,-1.418487 0.380975,-0.493612 0.03275,-1.32526 -0.620409,-1.315676 -1.844719,0.02883 -3.830776,0.179814 -5.374766,1.298605 -0.940981,0.775038 -1.846182,1.793763 -2.184096,2.988924 m -0.01608,0.06928 c -0.568402,2.033956 0.124701,4.469993 2.036755,5.41186 1.310329,0.693268 2.827596,0.418245 4.245141,0.471028 1.735778,-0.01104 3.474925,0.0303 5.208585,-0.0229 0.896347,-0.176382 1.050569,-1.593895 0.170289,-1.912002 -0.661812,-0.197783 -1.366787,-0.04072 -2.047327,-0.10034 1.108513,-0.0311 2.228178,0.06583 3.329412,-0.05545 0.88984,-0.27572 0.864019,-1.749095 -0.07901,-1.927558 -0.727113,-0.104132 -1.470336,-0.02145 -2.20456,-0.04438 -0.347448,-0.0037 -0.511859,-0.03174 -0.05171,-0.02141 1.194816,-0.01256 2.392981,0.03009 3.58567,-0.02355 0.896355,-0.176382 1.05056,-1.593895 0.170279,-1.912001 -0.664576,-0.194193 -1.372477,-0.04801 -2.056002,-0.09413 -0.826062,4.19e-4 -1.652131,0.0031 -2.478175,-0.0029 1.02991,-0.03069 2.070928,0.06527 3.093524,-0.05545 0.889849,-0.275715 0.864019,-1.749097 -0.07893,-1.927557 -0.704975,-0.10047 -1.424808,-0.02437 -2.137038,-0.04691 l -2.92737,0 C 67.677498,64.2564 67.484416,64.18202 67.286979,64.121724 m 0.14883,6.339354 3.461827,0 m -3.465152,-2.046526 3.461827,0 m -3.461827,-2.039881 3.461827,0"
       id="path4856-0-5"
       inkscape:connector-curvature="0"
       sodipodi:nodetypes="cccccccccccccccccccccccccccccccc" />
  </g>
</svg>
