<?xml version="1.0" encoding="UTF-8" standalone="no"?>
<!-- Created with Inkscape (http://www.inkscape.org/) -->

<svg
   xmlns:dc="http://purl.org/dc/elements/1.1/"
   xmlns:cc="http://creativecommons.org/ns#"
   xmlns:rdf="http://www.w3.org/1999/02/22-rdf-syntax-ns#"
   xmlns:svg="http://www.w3.org/2000/svg"
   xmlns="http://www.w3.org/2000/svg"
   xmlns:sodipodi="http://sodipodi.sourceforge.net/DTD/sodipodi-0.dtd"
   xmlns:inkscape="http://www.inkscape.org/namespaces/inkscape"
   width="210mm"
   height="297mm"
   viewBox="0 0 744.09448819 1052.3622047"
   id="svg9273"
   version="1.1"
   inkscape:version="0.91 r13725"
   sodipodi:docname="task-user.svg">
  <title
     id="title9861">Task</title>
  <defs
     id="defs9275" />
  <sodipodi:namedview
     id="base"
     pagecolor="#ffffff"
     bordercolor="#666666"
     borderopacity="1.0"
     inkscape:pageopacity="0.0"
     inkscape:pageshadow="2"
     inkscape:zoom="2.8"
     inkscape:cx="112.38279"
     inkscape:cy="928.0376"
     inkscape:document-units="px"
     inkscape:current-layer="layer1"
     showgrid="false"
     showguides="true"
     inkscape:guide-bbox="true"
     inkscape:window-width="1920"
     inkscape:window-height="1030"
     inkscape:window-x="-8"
     inkscape:window-y="-8"
     inkscape:window-maximized="1">
    <sodipodi:guide
       position="55.053314,1048.0333"
       orientation="1,0"
       id="guide9281" />
    <sodipodi:guide
       position="131.31983,998.03074"
       orientation="0,1"
       id="guide9283" />
    <sodipodi:guide
       position="697.00526,1030.8607"
       orientation="1,0"
       id="guide9285" />
    <sodipodi:guide
       position="163.39217,969.74646"
       orientation="1,0"
       id="guide9287" />
    <sodipodi:guide
       position="75.256365,925.80482"
       orientation="0,1"
       id="guide9289" />
    <sodipodi:guide
       position="95.711954,979.84798"
       orientation="0,1"
       id="guide4736" />
  </sodipodi:namedview>
  <metadata
     id="metadata9278">
    <rdf:RDF>
      <cc:Work
         rdf:about="">
        <dc:format>image/svg+xml</dc:format>
        <dc:type
           rdf:resource="http://purl.org/dc/dcmitype/StillImage" />
        <dc:title>Task</dc:title>
      </cc:Work>
    </rdf:RDF>
  </metadata>
  <g
     inkscape:label="Ebene 1"
     inkscape:groupmode="layer"
     id="layer1">
    <rect
       style="fill:#ffffff;fill-opacity:1;stroke:#000000;stroke-width:2;stroke-linejoin:round;stroke-miterlimit:4;stroke-dasharray:none;stroke-dashoffset:0;stroke-opacity:1"
       id="rect9894"
       width="108.33885"
       height="72.225922"
       x="55.053314"
       y="54.331486"
       rx="8.5860806"
       ry="7.7049794" />
    <path
       id="rect4160"
       style="fill:#ffffff;fill-opacity:1;stroke:#000000;stroke-width:0.69643939;stroke-linecap:round;stroke-linejoin:round;stroke-miterlimit:4;stroke-dasharray:none;stroke-dashoffset:0;stroke-opacity:1"
       d="m 64.059342,65.405107 5.217963,0 0,6.652503 -5.217963,0 z M 66.87777,64.81113 c -3.585679,3.9e-5 -6.492429,2.383069 -6.492477,5.322698 0.0011,0.03001 0.0021,0.06002 0.0037,0.09002 l -0.0063,0 0.0048,0.856257 a 11.956843,9.2428553 0 0 0 3.692137,1.219249 l 5.568547,0 a 11.956843,9.2428553 0 0 0 3.715346,-1.222177 l -0.0037,-0.766239 c 0.0048,-0.05898 0.0084,-0.118027 0.01071,-0.177107 -5.3e-5,-2.939627 -2.906809,-5.322657 -6.492483,-5.322698 z m 4.213421,-3.617505 a 4.3692401,3.5820134 0 0 1 -4.369241,3.582012 4.3692401,3.5820134 0 0 1 -4.369241,-3.582012 4.3692401,3.5820134 0 0 1 4.369241,-3.582014 4.3692401,3.5820134 0 0 1 4.369241,3.582014 z"
       inkscape:connector-curvature="0" />
  </g>
</svg>
